<svg width="24" height="24" viewBox="0 0 24 24" fill="none" xmlns="http://www.w3.org/2000/svg">
<g id="assignment_return_24px">
<path id="icon/action/assignment_return_24px" fill-rule="evenodd" clip-rule="evenodd" d="M9.18 20H5C3.9 20 3 19.1 3 18L3 4C3 2.9 3.9 2 5 2L19 2C19.14 2 19.27 2.01 19.4 2.03C19.79 2.11 20.14 2.31 20.41 2.58C20.59 2.77 20.74 2.98 20.84 3.22C20.94 3.46 21 3.73 21 4L21 18C21 18.28 20.94 18.54 20.84 18.77C20.74 19.01 20.59 19.23 20.41 19.41C20.14 19.68 19.79 19.88 19.4 19.96C19.27 19.99 19.14 20 19 20H14.82C14.4 21.16 13.3 22 12 22C10.7 22 9.6 21.16 9.18 20ZM8 9H12V6L17 11L12 16L12 13H8V9ZM12 20.25C11.59 20.25 11.25 19.91 11.25 19.5C11.25 19.09 11.59 18.75 12 18.75C12.41 18.75 12.75 19.09 12.75 19.5C12.75 19.91 12.41 20.25 12 20.25ZM19 4L5 4L5 18H19L19 4Z" fill="black" fill-opacity="0.54"/>
</g>
</svg>
