<svg width="24" height="24" viewBox="0 0 24 24" fill="none" xmlns="http://www.w3.org/2000/svg">
<g id="youtube_searched_for_24px">
<path id="icon/action/youtube_searched_for_24px" d="M17.01 14.26H16.21L15.94 13.99C16.92 12.85 17.51 11.38 17.51 9.76C17.51 6.17 14.6 3.26 11.01 3.26C7.42 3.26 4.51 6.26 4.51 9.76H2L5.84 13.76L10 9.76H6.51C6.51 7.26 8.53 5.26 11.01 5.26C13.49 5.26 15.51 7.27 15.51 9.76C15.51 12.24 13.49 14.26 11.01 14.26C10.36 14.26 9.75 14.12 9.19 13.88L7.71 15.36C8.68 15.93 9.8 16.26 11.01 16.26C12.62 16.26 14.09 15.67 15.23 14.69L15.5 14.96V15.75L20.51 20.74L22 19.26L17.01 14.26Z" fill="black" fill-opacity="0.54"/>
</g>
</svg>
